# xmcd
#
# Track frame offsets:
# 150
# 19050
# 36875
# 58737
# 78882
# 98352
# 119152
# 140032
# 157820
# 177862
# 199665
# 219650
# 234970
# 255945
# 273547
# 292150
# 311762
# 334180
#
# Disc length: 4691 seconds
#
#
# Revision: 0
# Processed by: cddbd v1.5.1PL0 Copyright (c) Steve Scherf et al.
# Submitted via: FreeRIP 2.92 
#
DISCID=02125112
DTITLE=Whitney Houston - The Greatest Hits - Disc 1
DYEAR=2000
DGENRE=Pop
TTITLE0=You Give Good Love
TTITLE1=Saving All My Love For You
TTITLE2=Greatest Love Of All
TTITLE3=All At Once
TTITLE4=If You Say My Eyes Are Beautiful - Duet With Jermaine Jackson
TTITLE5=Didn't We Almost Have It All
TTITLE6=Where Do Broken Hearts Go
TTITLE7=All The Man That I Need
TTITLE8=Run To You
TTITLE9=I Have Nothing
TTITLE10=I Will Always Love You
TTITLE11=Exhale (Shoop Shoop)
TTITLE12=Why Does It Hurt So Bad
TTITLE13=I Believe In You And Me
TTITLE14=Heartbreak Hotel - Featuring Faith Evans and Kelly Price
TTITLE15=My Love Is Your Love
TTITLE16=Same Script, Different Cast - Duet With Deborah Cox
TTITLE17=Could I Have This Kiss Forever - Duet With Enrique Iglesias - Metro Mix
EXTD=YEAR: 2000  ID3G:  13\nYEAR: 2000  ID3G:  13
EXTT0=
EXTT1=
EXTT2=
EXTT3=
EXTT4=
EXTT5=
EXTT6=
EXTT7=
EXTT8=
EXTT9=
EXTT10=
EXTT11=
EXTT12=
EXTT13=
EXTT14=
EXTT15=
EXTT16=
EXTT17=
PLAYORDER=
